# xmcd CD database file
#
# Track frame offsets:
#	150
#	33724
#	81796
#	121634
#	163588
#	203593
#
# Disc length: 3160 seconds
#
# Revision: 12
# Processed by: cddbd v1.5.2PL0 Copyright (c) Steve Scherf et al.
# Submitted via: CDex 1.70beta2
#
DISCID=410c5606
DTITLE=Nina Montangero - Hypnose therapeutique - Meditations guidees
DYEAR=2007
DGENRE=New Age
TTITLE0=Entree en hypnose
TTITLE1=Guerison spirituelle pour votre corps interne et externe
TTITLE2=Se revitaliser
TTITLE3=Rencontre avec vos guides
TTITLE4=Reconnexion a votre ame
TTITLE5=Meditation pour s'endormir
EXTD=YEAR: 2007
EXTT0=
EXTT1=
EXTT2=
EXTT3=
EXTT4=
EXTT5=
PLAYORDER=
